<?xml version="1.0" encoding="UTF-8"?>
<svg width="42px" height="42px" viewBox="0 0 42 42" version="1.1" xmlns="http://www.w3.org/2000/svg"
     xmlns:xlink="http://www.w3.org/1999/xlink">
    <!-- Generator: Sketch 48.1 (47250) - http://www.bohemiancoding.com/sketch -->
    <title>8</title>
    <desc>Created with Sketch.</desc>
    <defs></defs>
    <g id="Page-1" stroke="none" stroke-width="1" fill="none" fill-rule="evenodd">
        <g id="8" fill-rule="nonzero">
            <rect id="Rectangle-7" fill="#ffd9de" x="0" y="0" width="42" height="42"></rect>
            <path d="M24.6666667,17.3333333 L24.6666667,14.8697917 L17.3333333,14.8697917 L17.3333333,22.203125 L22.203125,22.203125 L22.203125,24.6666666 L17.3333333,24.6666666 L17.3333333,27.1302083 L22.203125,27.1302083 C22.852433,27.1302083 23.425346,26.8914936 23.921875,26.4140606 C24.418404,25.9366313 24.6666667,25.3541703 24.6666667,24.6666666 L24.6666667,22.203125 C24.6666667,21.5156213 24.427952,20.942712 23.9505227,20.484375 C23.4730897,20.026038 22.8906287,19.796875 22.203125,19.796875 L19.796875,19.796875 L19.796875,17.3333333 L24.6666667,17.3333333 Z M29.5364583,10 C30.1857663,10 30.7586793,10.2482627 31.2552083,10.7447917 C31.7517373,11.2413207 32,11.8142337 32,12.4635417 L32,29.5364583 C32,30.185767 31.7517373,30.7586782 31.2552083,31.2552083 C30.7586793,31.7517385 30.1857663,32 29.5364583,32 L12.4635417,32 C11.8142329,32 11.2413218,31.7517385 10.7447917,31.2552083 C10.2482614,30.7586782 10,30.185767 10,29.5364583 L10,12.4635417 C10,11.8142337 10.2482614,11.2413207 10.7447917,10.7447917 C11.2413218,10.2482627 11.8142329,10 12.4635417,10 L29.5364583,10 Z" id="20" fill="#be4949"></path>
        </g>
    </g>
</svg>